C:\Users\israe\Dropbox\PhDWork\ExperimentalData\subject7\055\P7S055W09_filtered35.mot
nRows=11
nColumns=28

name C:\Users\israe\Dropbox\PhDWork\ExperimentalData\subject7\055\P7S055W09_filtered35.mot
datacolumns 28
datarows 11
range 2.2420000000 2.2520000000
endheader
time	ground_force_1_vx	ground_force_1_vy	ground_force_1_vz	ground_force_1_px	ground_force_1_py	ground_force_1_pz	ground_moment_1_mx	ground_moment_1_my	ground_moment_1_mz	ground_force_2_vx	ground_force_2_vy	ground_force_2_vz	ground_force_2_px	ground_force_2_py	ground_force_2_pz	ground_moment_2_mx	ground_moment_2_my	ground_moment_2_mz	ground_force_3_vx	ground_force_3_vy	ground_force_3_vz	ground_force_3_px	ground_force_3_py	ground_force_3_pz	ground_moment_3_mx	ground_moment_3_my	ground_moment_3_mz
        2.2420000000	       -0.0000000000	        0.0000000000	       -0.0000000000	        0.1988394961	        0.0000558755	       -0.3004071324	        0.0000000000	        0.0000000000	       -0.0000000000	        0.0000000000	        0.0000000000	        0.0000000000	        0.2029003516	       -0.0000795827	        0.4543649445	        0.0000000000	        0.0000000000	       -0.0000000000	      -12.2986906858	      317.3692642103	      -16.5110285092	        0.2076431971	        0.0000770316	        1.3583900146	       81.6881640967	        5.2864483855	       14.8108567024	
        2.2430000000	       -0.0000000000	        0.0000000000	       -0.0000000000	        0.1988394961	        0.0000558755	       -0.3004071324	        0.0000000000	        0.0000000000	       -0.0000000000	        0.0000000000	        0.0000000000	        0.0000000000	        0.2029003516	       -0.0000795827	        0.4543649445	        0.0000000000	        0.0000000000	       -0.0000000000	      -12.3091767877	      318.9053911510	      -16.4537907190	        0.2076431971	        0.0000770316	        1.3583900146	       82.0655996361	        5.2875886298	       14.8537523309	
        2.2440000000	       -0.0000000000	        0.0000000000	       -0.0000000000	        0.1988394961	        0.0000558755	       -0.3004071324	        0.0000000000	        0.0000000000	       -0.0000000000	        0.0000000000	        0.0000000000	        0.0000000000	        0.2029003516	       -0.0000795827	        0.4543649445	        0.0000000000	        0.0000000000	       -0.0000000000	      -12.3197271682	      320.4147406133	      -16.3864048534	        0.2076431971	        0.0000770316	        1.3583900146	       82.4422335306	        5.2883662033	       14.8973127890	
        2.2450000000	       -0.0000000000	        0.0000000000	       -0.0000000000	        0.1988394961	        0.0000558755	       -0.3004071324	        0.0000000000	        0.0000000000	       -0.0000000000	        0.0000000000	        0.0000000000	        0.0000000000	        0.2029003516	       -0.0000795827	        0.4543649445	        0.0000000000	        0.0000000000	       -0.0000000000	      -12.3302633994	      321.9021716232	      -16.3070761910	        0.2076431971	        0.0000770316	        1.3583900146	       82.8184002433	        5.2890176631	       14.9414393609	
        2.2460000000	       -0.0000000000	        0.0000000000	       -0.0000000000	        0.1988394961	        0.0000558755	       -0.3004071324	        0.0000000000	        0.0000000000	       -0.0000000000	        0.0000000000	        0.0000000000	        0.0000000000	        0.2029003516	       -0.0000795827	        0.4543649445	        0.0000000000	        0.0000000000	       -0.0000000000	      -12.3412040374	      323.3705761666	      -16.2148582050	        0.2076431971	        0.0000770316	        1.3583900146	       83.1943026070	        5.2898001679	       14.9857194135	
        2.2470000000	       -0.0000000000	        0.0000000000	       -0.0000000000	        0.1988394961	        0.0000558755	       -0.3004071324	        0.0000000000	        0.0000000000	       -0.0000000000	        0.0000000000	        0.0000000000	        0.0000000000	        0.2029003516	       -0.0000795827	        0.4543649445	        0.0000000000	        0.0000000000	       -0.0000000000	      -12.3532967829	      324.8193764591	      -16.1095162666	        0.2076431971	        0.0000770316	        1.3583900146	       83.5698122514	        5.2910809198	       15.0296096667	
        2.2480000000	       -0.0000000000	        0.0000000000	       -0.0000000000	        0.1988394961	        0.0000558755	       -0.3004071324	        0.0000000000	        0.0000000000	       -0.0000000000	        0.0000000000	        0.0000000000	        0.0000000000	        0.2029003516	       -0.0000795827	        0.4543649445	        0.0000000000	        0.0000000000	       -0.0000000000	      -12.3669582165	      326.2455996501	      -15.9913397309	        0.2076431971	        0.0000770316	        1.3583900146	       83.9443050572	        5.2932823953	       15.0726964996	
        2.2490000000	       -0.0000000000	        0.0000000000	       -0.0000000000	        0.1988394961	        0.0000558755	       -0.3004071324	        0.0000000000	        0.0000000000	       -0.0000000000	        0.0000000000	        0.0000000000	        0.0000000000	        0.2029003516	       -0.0000795827	        0.4543649445	        0.0000000000	        0.0000000000	       -0.0000000000	      -12.3820924309	      327.6464962146	      -15.8610951686	        0.2076431971	        0.0000770316	        1.3583900146	       84.3168761462	        5.2967080099	       15.1148809727	
        2.2500000000	       -0.0000000000	        0.0000000000	       -0.0000000000	        0.1988394961	        0.0000558755	       -0.3004071324	        0.0000000000	        0.0000000000	       -0.0000000000	        0.0000000000	        0.0000000000	        0.0000000000	        0.2029003516	       -0.0000795827	        0.4543649445	        0.0000000000	        0.0000000000	       -0.0000000000	      -12.3987465132	      329.0208669432	      -15.7198248336	        0.2076431971	        0.0000770316	        1.3583900146	       84.6864635838	        5.3014853187	       15.1563612617	
        2.2510000000	       -0.0000000000	        0.0000000000	       -0.0000000000	        0.1988394961	        0.0000558755	       -0.3004071324	        0.0000000000	        0.0000000000	       -0.0000000000	        0.0000000000	        0.0000000000	        0.0000000000	        0.2029003516	       -0.0000795827	        0.4543649445	        0.0000000000	        0.0000000000	       -0.0000000000	      -12.4177922002	      330.3682039398	      -15.5686457952	        0.2076431971	        0.0000770316	        1.3583900146	       85.0517549305	        5.3076457524	       15.1974002340	
        2.2520000000	       -0.0000000000	        0.0000000000	       -0.0000000000	        0.1988394961	        0.0000558755	       -0.3004071324	        0.0000000000	        0.0000000000	       -0.0000000000	        0.0000000000	        0.0000000000	        0.0000000000	        0.2029003516	       -0.0000795827	        0.4543649445	        0.0000000000	        0.0000000000	       -0.0000000000	      -12.4407855494	      331.6883696190	      -15.4089670907	        0.2076431971	        0.0000770316	        1.3583900146	       85.4114387116	        5.3151759202	       15.2380711196	
